<svg xmlns="http://www.w3.org/2000/svg" version="1.2" viewBox="47 71.13 642 485.25">
	<title>Screen Shot 2022-12-04 at 11</title>
	<style>
		.s0 { fill: #8c1c0d } 
	</style>
	<path id="Path 0" class="s0" d="m338.5 71.2c207.3-0.2 214.3-0.1 223 1.7 5 1.1 10.8 2.7 13 3.6 2.2 0.9 5.6 2.4 7.5 3.3 1.9 0.9 5.1 2.8 7 4.2 1.9 1.3 5.9 4.5 8.9 7 3 2.5 7.3 7 9.5 10 2.3 3.1 4.7 6.4 5.3 7.5 0.7 1.1 2 3.6 2.9 5.5 0.9 1.9 2.5 6.4 3.5 10 1.8 6.2 1.9 11.7 1.9 140 0 128.8-0.1 133.7-2 140-1 3.6-3.5 9-5.6 12-2 3-4.8 6.8-6.3 8.3-1.4 1.6-4.6 4.4-7.1 6.2-2.5 1.8-7.2 4.7-10.5 6.4-3.3 1.6-8.3 3.7-11 4.6-2.8 0.9-6.8 2.2-9 2.8-2.8 0.7-53.3 1.2-330 2.2l-6 3.6c-3.3 1.9-6.7 3.8-7.5 4.2-0.8 0.4-2.8 1.6-4.5 2.7-1.7 1.1-3.9 2.4-5 3-1.1 0.5-2.9 1.6-4 2.2-1 0.7-3.7 2.4-6 3.8-2.2 1.3-5.3 3.1-7 4-1.7 0.9-11.3 6.6-21.5 12.6-10.2 6.1-19.2 11.3-20 11.7-0.8 0.4-2.8 1.6-4.5 2.7-1.7 1.1-3.9 2.4-5 3-1.1 0.6-4.5 2.4-7.5 4.1-3 1.7-8.5 5.1-12.3 7.5-3.7 2.4-6.9 4.4-7.2 4.4-0.3 0-4.9 2.6-10.3 5.8-5.3 3.2-10.8 6.2-12.2 6.7-2.3 0.8-2.4 0.7-1.7-1.6 0.5-1.3 1.5-5.1 2.3-8.4 0.9-3.3 2.2-8.5 2.9-11.5 0.8-3 2.1-8 2.9-11 0.8-3 2.6-10 4-15.5 1.4-5.5 3.2-12.3 4-15 0.8-2.8 2.2-7.6 3-10.8 0.9-3.1 1.4-6.5 1.1-7.5-0.3-1.3-2-1.9-7.5-2.5-3.8-0.4-7.2-1-7.4-1.5-0.2-0.4-2.1-1.1-4.2-1.5-2.2-0.4-5.7-1.5-7.9-2.4-2.2-0.8-7.2-3.1-11-5-3.8-2-9-5-11.5-6.8-2.5-1.8-6.7-5.7-9.4-8.6-2.6-3-5.5-6.8-6.4-8.4-0.9-1.6-2.4-5.3-3.4-8-1.6-4.7-1.7-13.4-1.8-138 0-127.7 0.1-133.2 1.9-139 1.1-3.3 3.2-8.4 4.8-11.4 1.5-3 6-8.9 9.9-13 3.9-4.2 10.2-9.7 14-12.2 3.8-2.6 9.4-6 12.4-7.6 3-1.6 8.2-3.9 11.5-5 3.3-1.2 8.5-2.6 11.5-3.2 3-0.6 6.8-1.3 8.5-1.5 1.7-0.1 99.3-0.4 217-0.4zm318.4 215c8.5 0.4 12.5 1 15.1 2.3 1.9 1 4.8 2.8 6.3 3.9 1.5 1.2 3.9 3.8 5.2 5.9 1.4 2 3.2 5.6 4 8 1.3 3.6 1.5 16.8 1.5 91.2 0 69.4-0.3 88-1.4 92-0.7 2.8-2.2 6.8-3.4 9-1.1 2.2-3.5 5.6-5.4 7.6-1.8 1.9-4.4 4.2-5.8 5.1-1.4 0.8-5 2.3-8 3.2-3 0.9-6.7 1.6-8.2 1.6-2.7 0-2.8 0.2-2.2 3.8 0.3 2 2.3 10.9 4.5 19.7 3 12.4 3.6 16.2 2.7 16.7-0.7 0.4-2.2 0.1-3.3-0.6-1.1-0.7-14.1-8.5-29-17.3-14.8-8.7-27.7-16.2-28.5-16.6-0.8-0.4-2.4-1.3-3.5-1.9-1.1-0.7-3.1-2.1-4.5-3.1-2.4-1.7-8.1-1.8-103-1.7-93.9 0-100.9-0.1-106-1.8-3-0.9-7.5-2.9-10-4.4-2.5-1.4-6.7-4.6-9.5-7.1-2.9-2.5-6.4-7.2-8.4-10.8-2.8-5.4-3.3-7.5-3.6-20.4l263-1 6.9-3.5c4.3-2.2 8.4-5.2 10.8-8 2.1-2.5 5.3-7.9 10.3-19.5l0.3-75c0.1-41.2 0.5-75.6 0.8-76.4 0.5-1.1 3-1.3 12.3-0.9z"/>
</svg>