<svg xmlns="http://www.w3.org/2000/svg" version="1.2" viewBox="499.67 1153.18 4000.32 2693.82">
	<title>user_icon_007-svg</title>
	<style>
		.s0 { fill: #8c1c0d } 
	</style>
	<path id="Path 0" class="s0" d="m1412.5 1153.5c14.8 0.2 32.2 0.9 38.5 1.5 6.3 0.6 17.8 2 25.5 3.1 7.7 1.1 19.6 3.2 26.5 4.5 6.9 1.4 18.3 4.1 25.5 5.9 7.2 1.8 19.5 5.4 27.5 8 8 2.6 20.6 7.1 28 10 7.4 2.9 19.1 7.8 26 11 6.9 3.1 17.2 8.2 23 11.3 5.8 3 15.5 8.5 21.5 12.1 6 3.5 16.4 10 23 14.5 6.6 4.4 16.7 11.6 22.5 16 5.8 4.3 16.1 12.7 23 18.5 6.9 5.8 19.5 17.5 28 26.1 8.6 8.5 20 20.7 25.4 27 5.4 6.3 14.2 17.3 19.6 24.5 5.4 7.2 14 19.5 19.3 27.5 5.2 8 12.7 20.3 16.8 27.5 4 7.2 10.5 19.7 14.4 28 4 8.2 9.1 19.7 11.5 25.5 2.3 5.8 6 15.5 8.2 21.5 2.2 6 6 18 8.4 26.5 2.5 8.5 5.9 21.6 7.5 29 1.7 7.4 4.1 19.8 5.4 27.5 1.3 7.7 3.2 21 4.2 29.5 1.3 11.8 1.7 23.8 1.8 50 0 21.5-0.5 39.2-1.3 47-0.7 6.9-2.4 19.9-3.8 29-1.4 9.1-3.9 22.6-5.5 30-1.6 7.4-4.3 18.5-6 24.5-1.7 6-4.6 16-6.6 22-1.9 6-6.4 18.4-10 27.5-3.6 9.1-10 23.7-14.2 32.5-4.2 8.8-11.5 22.5-16 30.5-4.6 8-11.3 19-14.9 24.5-3.5 5.5-11 16.1-16.5 23.5-5.5 7.4-14.8 19.1-20.5 26-5.8 6.9-18.3 20.2-27.6 29.5-9.4 9.4-22.7 21.7-29.6 27.5-6.9 5.7-17.9 14.4-24.5 19.3-6.6 4.9-17 12.2-23 16.2-6 4-17.1 10.7-24.5 15-7.4 4.3-21.2 11.5-30.5 16.1-9.3 4.5-23.5 10.8-31.5 13.9-8 3.2-21 7.9-29 10.5-8 2.6-21.7 6.6-30.5 8.8-8.8 2.3-22 5.2-29.3 6.6-7.2 1.4-20.1 3.5-28.4 4.5-8.4 1.1-23 2.5-32.3 3.2-10.6 0.7-26.5 1-42.5 0.6-14-0.4-32-1.3-40-2.2-8-0.9-22.4-2.9-32-4.6-9.6-1.6-24.9-4.7-34-7-9.1-2.2-25.7-7.1-37-10.9-11.3-3.7-26.6-9.4-34-12.5-7.4-3.1-20.5-9.2-29-13.4-8.5-4.3-20.5-10.6-26.5-14.1-6-3.4-17.3-10.5-25-15.6-7.7-5-19.2-13.2-25.6-18.1-6.5-4.8-17.3-13.6-24-19.4-6.8-5.8-18.9-17.1-26.8-25-7.9-7.9-19.1-19.8-24.7-26.4-5.6-6.6-13.7-16.5-17.9-22-4.2-5.5-11.8-16.1-16.8-23.5-5-7.4-12.2-18.7-16-25-3.7-6.3-10.6-18.9-15.2-28-4.6-9.1-11.3-23.7-15-32.5-3.7-8.8-9.3-23.9-12.5-33.5-3.2-9.6-7.9-25.8-10.4-36-2.5-10.2-5.9-26.4-7.5-36-1.6-9.6-3.8-25.2-4.7-34.5-1.2-11.9-1.8-25.8-1.8-46.5 0-16.6 0.5-35.2 1.2-42.5 0.7-7.2 2.2-19.5 3.3-27.5 1.1-8 3.4-21 5-29 1.6-8 4.5-20.6 6.5-28 2-7.4 5.6-19.6 8.1-27 2.4-7.4 6.9-19.8 10-27.5 3-7.7 9.2-21.7 13.7-31 4.5-9.3 11.3-22.4 15-29 3.8-6.6 11.5-19 17.1-27.5 5.6-8.5 14.2-20.7 19.1-27.1 4.9-6.4 13.5-17 19.1-23.5 5.5-6.6 18.1-19.8 28-29.4 9.8-9.7 22.3-21.3 27.8-25.9 5.5-4.5 15-12 21-16.5 6-4.5 16.4-11.9 23-16.3 6.6-4.4 17.6-11.3 24.5-15.3 6.9-4 19.2-10.6 27.5-14.7 8.2-4.2 22-10.5 30.5-14 8.5-3.6 23.4-9.1 33-12.3 9.6-3.2 24.7-7.6 33.5-9.9 8.8-2.2 22.1-5.1 29.5-6.5 7.4-1.4 20.7-3.5 29.5-4.6 8.8-1.1 21.6-2.4 28.5-2.9 6.9-0.5 24.7-0.8 39.5-0.6zm2178-0.3c9.9-0.1 25.2 0.3 34 0.8 8.8 0.6 23 2 31.5 3.1 8.5 1 21.6 3.1 29 4.5 7.4 1.4 20.7 4.3 29.5 6.5 8.8 2.3 23.9 6.7 33.5 9.9 9.6 3.2 24.5 8.7 33 12.3 8.5 3.5 22.2 9.8 30.5 14 8.2 4.1 20.6 10.7 27.5 14.7 6.9 4 17.9 10.9 24.5 15.3 6.6 4.4 16.9 11.8 23 16.3 6.1 4.5 15.5 12 21 16.5 5.5 4.6 18 16.2 27.8 25.9 9.9 9.6 22.5 22.8 28 29.4 5.6 6.5 14.2 17.1 19.1 23.5 4.9 6.4 13.5 18.6 19.1 27.1 5.6 8.5 13.3 20.9 17.1 27.5 3.7 6.6 10.5 19.7 15 29 4.5 9.3 10.7 23.3 13.7 31 3.1 7.7 7.6 20.1 10 27.5 2.5 7.4 6.1 19.6 8.1 27 2 7.4 4.9 20 6.5 28 1.6 8 3.9 21 5 29 1.1 8 2.6 20.3 3.3 27.5 0.7 7.2 1.2 26 1.2 42 0 20.1-0.6 34.4-1.8 46.5-0.9 9.6-3 25.4-4.7 35-1.6 9.6-5 25.8-7.5 36-2.5 10.2-7 25.7-9.9 34.5-2.9 8.8-7.6 21.8-10.5 29-2.9 7.2-9.1 21.1-13.9 31-4.8 9.9-11.5 23-15 29-3.5 6-11.4 18.7-17.6 28-6.2 9.3-14.7 21.5-18.9 27-4.3 5.5-12.4 15.4-18 22-5.6 6.6-16.8 18.5-24.7 26.4-7.9 7.9-20 19.2-26.8 25-6.7 5.8-17.5 14.6-24 19.4-6.4 4.9-17.9 13.1-25.6 18.1-7.7 5.1-18.9 12.2-25 15.6-6.1 3.5-18 9.8-26.5 14.1-8.5 4.2-21.6 10.3-29 13.4-7.4 3.1-22.7 8.8-34 12.5-11.3 3.8-27.9 8.7-37 10.9-9.1 2.3-24.4 5.4-34 7-9.6 1.7-24 3.7-32 4.6-8 0.9-26 1.8-40 2.2-16 0.4-31.9 0.1-42.5-0.6-9.3-0.7-23.9-2.1-32.3-3.2-8.3-1-21.2-3.1-28.5-4.5-7.2-1.4-20.4-4.3-29.2-6.6-8.8-2.2-22.5-6.2-30.5-8.8-8-2.6-21-7.3-29-10.5-8-3.1-22.2-9.4-31.5-13.9-9.3-4.6-23.1-11.8-30.5-16.1-7.4-4.3-18.4-11-24.5-15-6.1-4-16.4-11.3-23-16.2-6.6-4.9-17.6-13.6-24.5-19.3-6.9-5.7-20.4-18.3-30-28-9.7-9.6-22.3-23.1-28-30-5.7-6.9-14.4-17.9-19.3-24.5-4.9-6.6-12.2-17-16.2-23-4-6-11-17.5-15.6-25.5-4.5-8-11.7-21.7-16-30.5-4.2-8.8-9.9-21.6-12.7-28.5-2.8-6.9-6.8-17.7-9-24-2.2-6.3-5.6-17.1-7.5-24-2-6.9-5-18.3-6.6-25.5-1.6-7.2-4.1-20-5.5-28.5-1.5-8.5-3.3-21.8-4.2-29.5-0.8-7.7-1.8-26.2-2.1-41-0.4-17-0.1-33.1 0.6-43.5 0.7-9.1 1.9-21.7 2.7-28 0.8-6.3 2.6-18 4-26 1.5-8 4.4-21.5 6.5-30 2.1-8.5 5.6-21.3 7.8-28.5 2.2-7.2 6.2-18.8 8.9-26 2.7-7.2 7.5-18.8 10.6-26 3.2-7.2 9-19.3 13-27 4.1-7.7 10.2-18.7 13.6-24.5 3.5-5.8 9.5-15.2 13.3-21 3.9-5.8 11.4-16.3 16.7-23.5 5.4-7.2 14.2-18.2 19.6-24.5 5.4-6.3 16.8-18.5 25.4-27 8.5-8.5 21.1-20.3 28-26.1 6.9-5.8 17.2-14.2 23-18.5 5.8-4.4 14.6-10.7 19.5-14.1 4.9-3.3 13.7-8.9 19.5-12.5 5.8-3.6 16.6-9.8 24-13.8 7.4-4.1 19.3-10 26.5-13.3 7.2-3.3 19.1-8.3 26.5-11.2 7.4-2.9 20-7.4 28-10 8-2.6 20.3-6.2 27.5-8 7.2-1.8 18.6-4.5 25.5-5.9 6.9-1.3 18.8-3.4 26.5-4.5 7.7-1.1 19.8-2.5 27-3.1 7.2-0.5 15-1.2 17.5-1.3 2.5-0.2 12.6-0.4 22.5-0.5zm-2172 1052.3c205.1 0.1 287.5 0.5 296.5 1.3 6.9 0.7 18.8 1.9 26.5 2.7 7.7 0.9 22.3 2.9 32.5 4.6 10.2 1.6 26.6 4.8 36.5 7.1 9.9 2.2 26.3 6.4 36.5 9.3 10.2 3 24.1 7.3 43.2 14l5.8 15c3.1 8.3 8.5 21.3 11.9 29 3.4 7.7 10.6 22.6 16 33 5.4 10.4 14.1 26.2 19.3 35 5.3 8.8 13.5 21.8 18.3 29 4.8 7.2 13.8 19.8 19.9 28 6.2 8.3 15.9 20.6 21.7 27.3 5.7 6.8 11.6 13.9 15.9 19.2l-10.3 3c-5.6 1.7-18.3 5.8-28.2 9.1-9.9 3.4-26.3 9.4-36.5 13.4-10.2 4-25 10.2-33 13.7-8 3.6-21.9 10.3-31 14.8-9.1 4.5-21.5 10.9-27.5 14.2-6 3.4-17.5 9.9-25.5 14.7-8 4.7-23.3 14.4-34 21.5-10.7 7.1-27.6 19.1-37.5 26.5-9.9 7.5-23.4 18.1-30 23.6-6.6 5.4-18.1 15.4-25.5 22-7.4 6.6-21.4 19.9-31 29.5-9.6 9.6-23.5 24.3-30.8 32.5-7.4 8.3-18.7 21.5-25.1 29.5-6.5 8-16.3 20.6-21.8 28-5.5 7.4-14.3 19.8-19.5 27.5-5.3 7.7-13 19.5-17.2 26.3-4.2 6.7-11.3 18.6-15.7 26.5-4.5 7.8-12.1 21.9-17 31.2-4.8 9.3-12.5 25.1-16.9 35-4.5 9.9-11.5 26.3-15.5 36.5-4 10.2-9.9 25.9-13 35-3.1 9.1-8.5 26.4-12 38.5-3.5 12.1-8.2 30.1-10.5 40-2.2 9.9-5.6 26.3-7.5 36.5-1.9 10.2-4.5 26.8-5.9 37-1.3 10.2-3.2 26.4-4 36-0.9 9.6-2.1 27.4-2.6 39.5-0.5 12.1-1 75.7-1 260.5h-44.3c-24.3 0-57.2-0.5-73.2-1-16-0.6-41.8-1.7-57.5-2.5-15.7-0.9-40.7-2.5-55.5-3.6-14.8-1-38.9-3.1-53.5-4.5-14.6-1.3-38.2-3.8-52.5-5.5-14.3-1.6-36.1-4.3-48.5-5.9-12.4-1.7-34.4-4.9-49-7.1-14.6-2.2-39.1-6.3-54.5-9-15.4-2.7-40.1-7.4-55-10.3-14.9-3-37.4-7.8-50-10.6-12.6-2.8-34.9-8-49.5-11.6-14.6-3.5-38-9.6-52-13.4-14-3.8-36.1-10-49-13.9-12.9-3.8-33.6-10.2-46-14.1-12.4-4-34.4-11.4-49-16.5-14.6-5.1-38.2-13.8-52.5-19.3-14.3-5.4-29.5-11.3-41.5-16.2l-0.3-223.7c-0.1-123.1 0.1-234.1 0.5-246.8 0.3-12.7 1.4-30.2 2.2-39 0.9-8.8 2.6-22.3 3.7-30 1.1-7.7 3.3-21 4.9-29.5 1.6-8.5 4.8-22.9 7-32 2.2-9.1 6.1-23.5 8.7-32 2.5-8.5 6.6-21.1 9-28 2.4-6.9 6.9-18.8 10-26.5 3.1-7.7 9.4-22.1 14-32 4.6-9.9 12-24.7 16.5-33 4.5-8.2 11.1-19.9 14.8-26 3.7-6.1 9.3-15.1 12.5-20 3.2-4.9 10.1-15.1 15.4-22.5 5.2-7.4 14.8-20 21.1-28 6.4-8 17.3-20.8 24.2-28.5 6.9-7.7 20.1-21.4 29.4-30.5 9.3-9.1 21.9-20.8 27.9-26 6.1-5.2 17-14.2 24.3-20 7.3-5.8 20.8-15.8 30-22.2 9.2-6.4 25.9-17.2 37.2-24 11.2-6.8 29.9-17 41.5-22.8 11.5-5.8 27.7-13.4 36-16.9 8.2-3.5 22.2-9.1 31-12.3 8.8-3.3 23.2-8.1 32-10.8 8.8-2.7 22.1-6.5 29.5-8.4 7.4-1.9 21.1-5 30.5-7 9.4-1.9 24.7-4.6 34-6 9.3-1.4 24.2-3.2 33-4.1 8.8-0.9 24.5-2 35-2.4 10.5-0.5 146.8-0.7 303-0.6zm2171-0.3c159.8-0.1 277.5 0.2 291.5 0.8 12.9 0.5 30.5 1.7 39 2.6 8.5 0.8 23.2 2.6 32.5 4 9.3 1.4 24.7 4.1 34 6 9.3 2 23.1 5.1 30.5 7 7.4 1.9 20.2 5.5 28.5 8 8.2 2.5 22.2 7.2 31 10.4 8.8 3.2 22.5 8.6 30.5 12 8 3.4 21.2 9.4 29.5 13.4 8.2 4 21.5 10.8 29.5 15.2 8 4.5 21.2 12.2 29.5 17.3 8.2 5.1 22.2 14.3 30.9 20.4 8.8 6.2 22.7 16.6 31 23.3 8.3 6.7 21.4 17.7 29.1 24.6 7.7 6.9 21.4 20.1 30.5 29.4 9.1 9.3 20.9 22.1 26.4 28.4 5.4 6.3 14.8 17.8 20.9 25.5 6 7.7 15.3 20.3 20.7 28 5.4 7.7 13.1 19.4 17.3 26 4.1 6.6 10.7 17.6 14.6 24.5 4 6.9 11.6 21.5 17.1 32.5 5.4 11 12.4 26.1 15.5 33.5 3.2 7.4 8.6 21.2 12 30.5 3.5 9.3 8.6 24.7 11.4 34 2.8 9.3 7.1 25.3 9.5 35.5 2.5 10.2 5.6 24.6 7 32 1.4 7.4 3.4 19.8 4.5 27.5 1.1 7.7 2.8 20.8 3.8 29 1.6 13.8 1.7 35.3 2.3 510.5l-7.8 3.2c-4.2 1.7-19.4 7.6-33.7 13-14.3 5.5-37.9 14.2-52.5 19.3-14.6 5.1-36.6 12.5-49 16.5-12.4 3.9-33.1 10.3-46 14.1-12.9 3.9-35 10.1-49 13.9-14 3.8-37.4 9.9-52 13.4-14.6 3.6-36.9 8.8-49.5 11.6-12.6 2.8-35.1 7.6-50 10.6-14.8 2.9-39.6 7.6-55 10.3-15.4 2.7-39.9 6.8-54.5 9-14.6 2.2-36.6 5.4-49 7.1-12.4 1.6-34.2 4.3-48.5 5.9-14.3 1.7-37.9 4.2-52.5 5.5-14.6 1.4-38.7 3.5-53.5 4.5-14.8 1.1-39.8 2.7-55.5 3.6-15.7 0.8-41.6 1.9-57.5 2.5-15.9 0.5-48.9 1-117.5 1v-119.2c0-65.6-0.5-129.4-1-141.8-0.6-12.4-1.7-30.2-2.6-39.5-0.8-9.3-2.6-25.3-4-35.5-1.4-10.2-4-26.8-5.9-37-1.9-10.2-5.3-26.6-7.5-36.5-2.3-9.9-7-27.9-10.5-40-3.5-12.1-8.9-29.4-12-38.5-3.1-9.1-9-24.8-13-35-4-10.2-11-26.6-15.5-36.5-4.4-9.9-12.1-25.7-16.9-35-4.8-9.3-12.5-23.5-17.1-31.5-4.6-8-11.7-19.9-15.8-26.5-4.1-6.6-11.7-18.3-17-26-5.2-7.7-14-20.1-19.5-27.5-5.5-7.4-15.3-20-21.8-28-6.4-8-17.7-21.2-25.1-29.5-7.3-8.2-21.2-22.9-30.8-32.5-9.6-9.6-23.6-22.9-31-29.5-7.4-6.6-18.9-16.6-25.5-22-6.6-5.5-20.3-16.3-30.5-23.9-10.2-7.7-27.5-19.9-38.5-27.1-11-7.3-24.5-16-30-19.2-5.5-3.3-15.6-9.2-22.5-13-6.9-3.9-20.8-11.2-31-16.3-10.2-5.1-25-12.2-33-15.8-8-3.5-22.8-9.7-33-13.7-10.2-4-26.6-10-36.5-13.4-9.9-3.3-22.6-7.4-38.5-12.1l2.7-3.4c1.6-1.9 7.3-8.8 12.8-15.3 5.5-6.5 15.4-19 22-27.8 6.6-8.8 15.9-21.8 20.6-29 4.8-7.2 11.2-17.3 14.4-22.5 3.2-5.2 8.8-14.9 12.5-21.5 3.7-6.6 9.9-18.3 13.7-26 3.9-7.7 9.6-19.8 12.8-27 3.2-7.2 8.4-19.7 17.3-43l12.4-4.3c6.7-2.4 20.6-6.7 30.8-9.7 10.2-2.9 26.6-7.1 36.5-9.3 9.9-2.3 26.3-5.4 36.5-7.1 10.2-1.7 24.6-3.7 32-4.6 7.4-0.8 20.7-1.9 29.5-2.5 8.8-0.6 20.1-1.2 25-1.3 4.9-0.2 129.6-0.4 277-0.5zm-1082 385.3c276 0.1 299.2 0.2 314 1.8 8.8 1 23.9 2.9 33.5 4.3 9.6 1.3 25.4 4 35 6 9.6 1.9 23.8 5.1 31.5 7.1 7.7 1.9 20.5 5.5 28.5 7.9 8 2.5 21 6.7 29 9.6 8 2.8 21.5 8 30 11.5 8.5 3.5 24.5 10.8 35.5 16.2 11 5.4 26.9 13.6 35.2 18.4 8.4 4.8 21.7 12.8 29.5 17.8 7.9 5 19.7 13 26.3 17.7 6.6 4.7 16.9 12.4 23 17.1 6.1 4.7 17.1 13.8 24.5 20.2 7.4 6.4 19.8 17.7 27.5 25.1 7.7 7.4 19.9 20 27.1 27.9 7.2 7.9 17.5 19.8 22.9 26.4 5.4 6.6 14.2 17.8 19.6 25 5.3 7.2 14.8 20.9 21.2 30.5 6.3 9.6 15.6 24.7 20.7 33.5 5 8.8 13.4 24.6 18.5 35 5.1 10.4 11.8 24.8 14.8 32 3.1 7.2 7.3 17.7 9.5 23.5 2.2 5.8 6.1 16.6 8.6 24 2.5 7.4 6.6 20.7 9.1 29.5 2.5 8.8 6.1 23 8 31.5 1.9 8.5 4.6 21.8 6 29.5 1.4 7.7 3.7 22.6 5 33 1.3 10.4 3 26.7 3.7 36 1 13.4 1.3 66.9 1.3 492.7l-22.5 9c-12.4 4.9-35.3 13.6-51 19.3-15.7 5.6-42.2 14.8-59 20.3-16.8 5.5-42 13.4-56 17.5-14 4.2-35.4 10.3-47.5 13.6-12.1 3.3-33.7 8.9-48 12.5-14.3 3.5-36.1 8.7-48.5 11.5-12.4 2.7-31.1 6.8-41.5 9-10.4 2.1-28.9 5.8-41 8.1-12.1 2.3-35.1 6.3-51 9-15.9 2.7-40 6.5-53.5 8.4-13.5 2-36.9 5.1-52 7-15.1 1.9-41.2 4.9-58 6.5-16.8 1.7-38.4 3.7-48 4.6-9.6 0.8-31 2.3-47.5 3.4-16.5 1.1-40.3 2.5-53 3.1-12.7 0.6-38.1 1.5-56.5 2-18.4 0.5-50.8 1-72 1-21.2 0-53.6-0.5-72-1-18.4-0.5-43.8-1.4-56.5-2-12.7-0.6-36.5-2-53-3.1-16.5-1.1-40.6-2.9-53.5-4-12.9-1.1-34.3-3.1-47.5-4.5-13.2-1.3-35-3.8-48.5-5.5-13.5-1.6-37.1-4.8-52.5-7-15.4-2.2-40.2-6-55-8.5-14.8-2.5-38.9-6.8-53.5-9.5-14.6-2.8-37.1-7.3-50-10-12.9-2.8-32.3-7.1-43-9.5-10.7-2.5-29.4-7-41.5-10-12.1-3.1-32.8-8.5-46-12.1-13.2-3.5-38-10.7-55-15.8-17-5.2-45.8-14.4-64-20.5-18.2-6.1-46-16-62-22-16-6-34.4-13.1-53-20.6v-239c0-188.4 0.3-242.3 1.3-254.9 0.7-8.8 2.4-24.6 3.7-35 1.3-10.4 3.6-25.3 5-33 1.4-7.7 4.1-21 6-29.5 1.9-8.5 5.5-22.7 8-31.5 2.5-8.8 6.6-22.1 9.1-29.5 2.5-7.4 6.4-18.2 8.6-24 2.2-5.8 6.4-16.3 9.5-23.5 3-7.2 9.7-21.6 14.8-32 5.1-10.4 13.5-26.2 18.5-35 5.1-8.8 14.4-23.9 20.7-33.5 6.4-9.6 15.4-22.7 20.1-29 4.7-6.3 12.2-16 16.6-21.5 4.4-5.5 12.8-15.4 18.6-22 5.8-6.6 16.1-17.8 23-24.9 6.9-7 18.3-18.1 25.5-24.6 7.2-6.5 17.7-15.8 23.5-20.6 5.8-4.8 16.6-13.3 24-18.9 7.4-5.6 18.5-13.5 24.5-17.7 6-4.1 16.4-10.9 23-15 6.6-4.1 17.6-10.6 24.5-14.5 6.9-3.9 19.2-10.4 27.5-14.5 8.2-4.2 20.8-10.1 28-13.3 7.2-3.2 18.2-7.8 24.5-10.2 6.3-2.5 16.5-6.2 22.5-8.4 6-2.1 17.5-5.8 25.5-8.3 8-2.4 20.8-6 28.5-7.9 7.7-2 21.9-5.2 31.5-7.1 9.6-2 25.4-4.7 35-6 9.6-1.4 25.2-3.2 34.5-4.1 9.3-0.8 19.9-1.6 23.5-1.8 3.6-0.2 140.6-0.3 304.5-0.2zm-2.5-1052c25 0.2 39.5 0.7 49 1.9 7.4 0.9 19.1 2.5 26 3.6 6.9 1.1 19.5 3.6 28 5.6 8.5 1.9 22.5 5.5 31 8 8.5 2.5 21.6 6.9 29 9.6 7.4 2.8 18.2 7.1 24 9.5 5.8 2.5 17.9 8.2 27 12.7 9.1 4.6 21.7 11.4 28 15.1 6.3 3.8 16.9 10.4 23.5 14.8 6.6 4.4 17.4 12.1 24 17.1 6.6 5 16.7 13.1 22.5 18 5.8 5 16.5 14.9 23.9 22 7.3 7.2 17.7 18.1 23.1 24.1 5.3 6.1 13.9 16.2 18.9 22.5 5.1 6.3 13.4 17.6 18.5 25 5.2 7.4 13.3 20 18.1 28 4.8 8 13.1 23.5 18.5 34.5 5.4 11 12.2 25.8 15 33 2.9 7.2 7.6 20.2 10.5 29 2.9 8.8 7.1 23.2 9.3 32 2.3 8.8 5 21 6.2 27 1.1 6.1 2.9 16.8 4 24 1 7.2 2.5 18.6 3.2 25.5 0.8 7.6 1.3 25.1 1.3 44.5-0.1 23.8-0.5 36.2-1.8 48.5-1 9.1-3.2 24.4-4.8 34-1.6 9.6-4.7 24.7-6.9 33.5-2.1 8.8-5.6 21.4-7.6 28-2 6.6-6 18.3-8.9 26-2.9 7.7-8 20.3-11.4 28-3.4 7.7-9.3 19.8-13 27-3.8 7.2-9.2 17.1-12.1 22-3 4.9-8.6 13.9-12.5 20-4 6.1-11.4 16.6-16.5 23.5-5.1 6.9-13.6 17.7-18.9 24-5.2 6.3-17.9 19.8-28.1 30-10.2 10.2-24.1 23.3-31 29-6.9 5.7-17.4 14.1-23.5 18.6-6.1 4.5-16.8 12-24 16.6-7.2 4.7-17.9 11.3-24 14.8-6.1 3.5-18.9 10.2-28.5 14.9-9.6 4.8-23.6 11.1-31 14-7.4 3-20.7 7.8-29.5 10.8-8.8 3-25 7.6-36 10.3-11 2.7-26.5 6.1-34.5 7.4-8 1.4-20.6 3.2-28 4-7.4 0.9-22.9 2-34.5 2.6-13.8 0.6-28 0.6-41.5 0-11.3-0.6-26.6-1.7-34-2.6-7.4-0.8-20-2.6-28-4-8-1.3-23.5-4.7-34.5-7.4-11-2.7-27.2-7.3-36-10.3-8.8-3-22.1-7.8-29.5-10.8-7.4-2.9-21.4-9.2-31-14-9.6-4.7-22.4-11.4-28.5-14.9-6.1-3.5-16.8-10.1-24-14.8-7.2-4.6-17.9-12.1-24-16.6-6.1-4.5-16.6-12.9-23.5-18.6-6.9-5.7-20.8-18.8-31-29-10.2-10.2-22.9-23.7-28.1-30-5.3-6.3-13.8-17.1-18.9-24-5.1-6.9-12.5-17.4-16.5-23.5-3.9-6.1-9.5-15.1-12.5-20-2.9-4.9-8.3-14.8-12.1-22-3.7-7.2-9.5-19.1-12.7-26.5-3.3-7.4-7.8-18.2-10-24-2.1-5.8-5.1-13.9-6.5-18-1.5-4.1-4.4-13.6-6.6-21-2.1-7.4-5.3-19.6-6.9-27-1.7-7.4-4.3-20.5-5.6-29-1.4-8.5-3.3-22.5-4.3-31-1.2-11.2-1.7-24.3-1.7-47.5-0.1-19.2 0.4-37 1.2-44.5 0.7-6.9 1.9-17.4 2.8-23.5 0.8-6 2.6-17.1 4-24.5 1.4-7.4 4.3-20.7 6.6-29.5 2.2-8.8 6.4-23.2 9.3-32 2.9-8.8 7.6-21.8 10.5-29 2.9-7.2 8.7-20.2 12.9-29 4.3-8.8 11.4-22.5 16-30.5 4.6-8 13-21.5 18.7-30 5.7-8.5 14.1-20.3 18.6-26.1 4.6-5.9 13.5-16.6 19.8-23.9 6.3-7.3 18.3-19.8 26.5-27.9 8.3-8 19.5-18.4 25-22.9 5.5-4.6 15.2-12.3 21.5-17.1 6.3-4.8 16.9-12.4 23.5-16.8 6.6-4.4 17.2-11 23.5-14.8 6.3-3.7 18.9-10.5 28-15.1 9.1-4.5 21.2-10.2 27-12.7 5.8-2.4 16.6-6.7 24-9.5 7.4-2.7 20.5-7.1 29-9.6 8.5-2.5 22.5-6.1 31-8.1 8.5-1.9 22.7-4.6 31.5-5.9 8.8-1.4 20.9-3 27-3.6 6.1-0.5 12.8-1.2 15-1.4 2.2-0.2 20-0.3 39.5-0.1z"/>
</svg>